OS.mot
version=1
datacolumns 20
datarows 26
range 0.000000 0.250000
inDegrees=yes
endheader
time	pelvis_list	pelvis_rotation	pelvis_tilt	hip_flexion_r	hip_adduction_r	hip_rotation_r	knee_angle_r	ankle_angle_r	hip_flexion_l	hip_adduction_l	hip_rotation_l	knee_angle_l	ankle_angle_l	pelvis_tx	pelvis_ty	pelvis_tz	lumbarbending	lumbar_rotation	lumbar_extension
0.000000	3.110000	0.140000	0.020000	30.830000	-4.320000	-6.600000	-61.970000	3.990000	9.290000	-1.990000	-0.260000	-10.520000	6.960000	2.430000	1.030000	0.020000	-1.950000	1.120000	-1.790000
0.010000	3.130000	0.150000	0.030000	32.090000	-3.840000	-5.120000	-59.650000	5.060000	8.900000	-1.700000	1.000000	-9.930000	7.460000	2.420000	1.030000	0.020000	-1.660000	1.230000	-2.020000
0.020000	3.140000	0.160000	0.040000	34.500000	-3.100000	-3.590000	-55.290000	5.510000	8.640000	-0.950000	1.740000	-9.240000	8.320000	2.400000	1.030000	0.020000	-1.550000	1.000000	-2.170000
0.030000	-3.140000	0.170000	0.040000	35.090000	-2.920000	-3.140000	-53.350000	5.390000	8.250000	-0.750000	1.940000	-8.950000	8.680000	2.390000	1.020000	0.020000	-1.500000	0.890000	-2.320000
0.040000	-3.140000	0.170000	0.040000	35.640000	-2.760000	-2.570000	-50.980000	5.230000	7.670000	-0.610000	2.280000	-8.560000	9.090000	2.380000	1.020000	0.020000	-1.490000	0.800000	-2.440000
0.050000	-3.130000	0.170000	0.040000	36.150000	-2.640000	-1.860000	-48.220000	5.060000	6.900000	-0.590000	2.810000	-8.070000	9.520000	2.370000	1.020000	0.020000	-1.500000	0.760000	-2.520000
0.060000	-3.130000	0.170000	0.030000	36.570000	-2.590000	-1.030000	-45.130000	4.900000	5.970000	-0.740000	3.530000	-7.470000	9.930000	2.360000	1.020000	0.020000	-1.540000	0.750000	-2.550000
0.070000	-3.120000	0.170000	0.030000	36.870000	-2.610000	-0.070000	-41.760000	4.790000	4.890000	-1.080000	4.400000	-6.780000	10.310000	2.350000	1.020000	0.010000	-1.620000	0.780000	-2.530000
0.080000	-3.110000	0.170000	0.020000	37.050000	-2.720000	0.980000	-38.180000	4.740000	3.690000	-1.600000	5.370000	-6.030000	10.660000	2.340000	1.020000	0.010000	-1.760000	0.800000	-2.450000
0.090000	-3.100000	0.160000	0.010000	37.090000	-2.900000	2.130000	-34.430000	4.740000	2.400000	-2.270000	6.360000	-5.250000	10.980000	2.330000	1.010000	0.010000	-1.940000	0.830000	-2.300000
0.100000	-3.090000	0.160000	-0.000000	37.040000	-3.140000	3.350000	-30.600000	4.790000	1.050000	-3.060000	7.310000	-4.480000	11.260000	2.310000	1.010000	0.010000	-2.100000	0.910000	-2.020000
0.110000	-3.090000	0.160000	-0.010000	36.930000	-3.420000	4.620000	-26.750000	4.860000	-0.320000	-3.910000	8.190000	-3.750000	11.530000	2.300000	1.010000	0.010000	-0.000000	-0.000000	0.000000
0.120000	-3.080000	0.150000	-0.020000	36.790000	-3.720000	5.920000	-22.950000	4.930000	-1.670000	-4.780000	8.970000	-3.100000	11.780000	2.290000	1.000000	0.010000	-0.000000	-0.000000	0.000000
0.130000	-3.070000	0.150000	-0.030000	36.680000	-4.020000	7.190000	-19.290000	5.000000	-2.970000	-5.630000	9.690000	-2.570000	12.060000	2.280000	1.000000	0.010000	-0.000000	-0.000000	0.000000
0.140000	-3.070000	0.140000	-0.040000	36.620000	-4.310000	8.330000	-15.870000	5.050000	-4.200000	-6.420000	10.340000	-2.170000	12.370000	2.260000	0.990000	0.010000	-0.000000	-0.000000	0.000000
0.150000	-3.060000	0.140000	-0.050000	36.640000	-4.580000	9.220000	-12.780000	5.110000	-5.340000	-7.150000	10.910000	-1.930000	12.730000	2.250000	0.990000	0.010000	-0.000000	-0.000000	0.000000
0.160000	-3.060000	0.140000	-0.060000	36.740000	-4.840000	9.830000	-10.130000	5.190000	-6.370000	-7.790000	11.400000	-1.850000	13.130000	2.240000	0.990000	0.010000	-0.000000	-0.000000	0.000000
0.170000	-3.050000	0.140000	-0.070000	36.940000	-5.080000	10.130000	-8.020000	5.300000	-7.310000	-8.320000	11.790000	-1.900000	13.570000	2.220000	0.980000	0.000000	-0.000000	-0.000000	0.000000
0.180000	-3.050000	0.130000	-0.070000	37.220000	-5.270000	10.190000	-6.520000	5.470000	-8.170000	-8.720000	12.060000	-2.060000	14.000000	2.210000	0.980000	0.000000	-0.000000	-0.000000	0.000000
0.190000	-3.050000	0.130000	-0.080000	37.540000	-5.370000	10.120000	-5.680000	5.660000	-8.990000	-8.950000	12.230000	-2.290000	14.410000	2.200000	0.980000	0.000000	-0.000000	-0.000000	0.000000
0.200000	-3.050000	0.130000	-0.080000	37.880000	-5.350000	10.010000	-5.480000	5.850000	-9.790000	-9.020000	12.350000	-2.580000	14.780000	2.180000	0.970000	0.000000	-0.000000	-0.000000	0.000000
0.210000	-3.050000	0.130000	-0.080000	38.220000	-5.190000	9.960000	-5.850000	5.980000	-10.570000	-8.920000	12.450000	-2.910000	15.090000	2.170000	0.970000	-0.000000	-0.000000	-0.000000	0.000000
0.220000	-3.050000	0.130000	-0.080000	38.530000	-4.880000	9.990000	-6.680000	5.990000	-11.320000	-8.660000	12.560000	-3.290000	15.320000	2.160000	0.970000	-0.000000	-0.000000	-0.000000	0.000000
0.230000	-3.050000	0.130000	-0.070000	38.810000	-4.460000	10.110000	-7.820000	5.820000	-12.030000	-8.280000	12.670000	-3.730000	15.460000	2.140000	0.970000	-0.000000	-0.000000	-0.000000	0.000000
0.240000	-3.050000	0.130000	-0.070000	39.060000	-3.980000	10.260000	-9.160000	5.420000	-12.680000	-7.820000	12.740000	-4.230000	15.470000	2.130000	0.970000	-0.010000	-0.000000	-0.000000	0.000000
0.250000	-3.050000	0.130000	-0.060000	39.280000	-3.470000	10.390000	-10.570000	4.790000	-13.260000	-7.310000	12.720000	-4.810000	15.340000	2.110000	0.960000	-0.010000	-0.000000	-0.000000	0.000000
